<svg id="Layer_1" data-name="Layer 1" xmlns="http://www.w3.org/2000/svg" viewBox="0 0 453 453"><defs><style>.cls-1{fill:#fff;}.cls-2{font-size:100px;fill:gray;font-family:TimesNewRomanPSMT, Times New Roman;}.cls-3{fill:none;stroke:#a9a9a9;stroke-miterlimit:10;stroke-width:7px;}</style></defs><title>Untitled-1</title><rect class="cls-1" x="1" y="1" width="451" height="451" rx="11.04"/><path d="M871,225a10,10,0,0,1,10,10V664a10,10,0,0,1-10,10H442a10,10,0,0,1-10-10V235a10,10,0,0,1,10-10H871m0-2H442a12,12,0,0,0-12,12V664a12,12,0,0,0,12,12H871a12,12,0,0,0,12-12V235a12,12,0,0,0-12-12Z" transform="translate(-430 -223)"/><text class="cls-2" transform="translate(297.51 252.99)">S</text><text class="cls-2" transform="translate(357.51 243.03)">;</text><path class="cls-3" d="M453.5,406v85c116.82,22.55,225.24,50.86,280,116,32-45.06,75.44-80.16,126-109" transform="translate(-430 -223)"/><path class="cls-3" d="M453.5,491V406c116.82-22.55,225.24-50.86,280-116,32,45.06,75.44,80.16,126,109" transform="translate(-430 -223)"/><rect class="cls-3" x="770" y="448.5" width="178.5" height="0.5" transform="translate(-19.5 1085) rotate(-90)"/><line class="cls-3" x1="24" y1="226" x2="266" y2="225.5"/></svg>